<svg xmlns="http://www.w3.org/2000/svg" width="1200" height="630" viewBox="0 0 1200 630" role="img" aria-label="Press Plates &amp; Pads: Smart Tooling for Perfect Panels">
    <defs>
      <linearGradient id="posterGrad-press-plates-pads-smart-tooling-perfect-panels" x1="0%" y1="0%" x2="100%" y2="100%">
        <stop offset="0%" stop-color="#ffffff"/>
        <stop offset="100%" stop-color="#f4f4f5"/>
      </linearGradient>
    </defs>
    <rect width="1200" height="630" rx="36" fill="url(#posterGrad-press-plates-pads-smart-tooling-perfect-panels)"/>
    <rect x="38" y="38" width="1124" height="554" rx="30" fill="rgba(255,255,255,0.84)" stroke="rgba(24,24,27,0.06)"/>
    <rect x="60" y="64" width="220" height="36" rx="18" fill="#18181b" opacity="0.92"/>
    <text x="84" y="88" font-family="Arial, sans-serif" font-size="15" font-weight="700" fill="#ffffff" letter-spacing="1.8">LINKEDIN RESEARCH, REBUILT FOR BUYERS</text>
    <text x="60" y="172" font-family="Arial, sans-serif" font-size="54" font-weight="700" fill="#18181b">Press Plates &amp; Pads:</text><text x="60" y="236" font-family="Arial, sans-serif" font-size="54" font-weight="700" fill="#18181b">Smart Tooling for</text><text x="60" y="300" font-family="Arial, sans-serif" font-size="54" font-weight="700" fill="#18181b">Perfect Panels</text>
    <text x="60" y="446" font-family="Arial, sans-serif" font-size="24" fill="#52525b">The stack decides the surface before the complaint reaches QC.</text>
    <rect x="60" y="486" width="176" height="60" rx="18" fill="rgba(255,255,255,0.92)" stroke="rgba(24,24,27,0.08)"/><text x="76" y="510" font-family="Arial, sans-serif" font-size="13" fill="#71717a" letter-spacing="1.2">STEEL LOGIC</text><text x="76" y="537" font-family="Arial, sans-serif" font-size="22" font-weight="700" fill="#18181b">400 / 600-series bias</text><rect x="258" y="486" width="176" height="60" rx="18" fill="rgba(255,255,255,0.92)" stroke="rgba(24,24,27,0.08)"/><text x="274" y="510" font-family="Arial, sans-serif" font-size="13" fill="#71717a" letter-spacing="1.2">CHROME WINDOW</text><text x="274" y="537" font-family="Arial, sans-serif" font-size="22" font-weight="700" fill="#18181b">Approx. 20–100 μm</text><rect x="456" y="486" width="176" height="60" rx="18" fill="rgba(255,255,255,0.92)" stroke="rgba(24,24,27,0.08)"/><text x="472" y="510" font-family="Arial, sans-serif" font-size="13" fill="#71717a" letter-spacing="1.2">PAD ROUTE</text><text x="472" y="537" font-family="Arial, sans-serif" font-size="22" font-weight="700" fill="#18181b">Silicone–copper</text>
    <rect x="720" y="96" width="396" height="438" rx="28" fill="#ffffff" stroke="rgba(24,24,27,0.06)"/>
    <text x="760" y="136" font-family="Arial, sans-serif" font-size="16" font-weight="700" fill="#18181b" letter-spacing="1.6">DASHBOARD SNAPSHOT</text>
    <text x="760" y="152" font-family="Arial, sans-serif" font-size="18" font-weight="700" fill="#18181b">Plate surface &amp; flatness</text><rect x="760" y="170" width="220" height="14" rx="7" fill="#e4e4e7"/><rect x="760" y="170" width="197" height="14" rx="7" fill="#18181b"/><text x="1000" y="182" font-family="Arial, sans-serif" font-size="18" font-weight="700" fill="#18181b">Primary</text><text x="760" y="210" font-family="Arial, sans-serif" font-size="15" fill="#52525b">Finish drift often starts with the working surface itself.</text><text x="760" y="270" font-family="Arial, sans-serif" font-size="18" font-weight="700" fill="#18181b">Pad ageing / dead zones</text><rect x="760" y="288" width="220" height="14" rx="7" fill="#e4e4e7"/><rect x="760" y="288" width="185" height="14" rx="7" fill="#18181b"/><text x="1000" y="300" font-family="Arial, sans-serif" font-size="18" font-weight="700" fill="#18181b">Primary</text><text x="760" y="328" font-family="Arial, sans-serif" font-size="15" fill="#52525b">Shows up as cloudy areas, pressure drift, and width-wise inconsistency.</text><text x="760" y="388" font-family="Arial, sans-serif" font-size="18" font-weight="700" fill="#18181b">Chrome condition</text><rect x="760" y="406" width="220" height="14" rx="7" fill="#e4e4e7"/><rect x="760" y="406" width="172" height="14" rx="7" fill="#18181b"/><text x="1000" y="418" font-family="Arial, sans-serif" font-size="18" font-weight="700" fill="#18181b">High</text><text x="760" y="446" font-family="Arial, sans-serif" font-size="15" fill="#52525b">Wear, micro-cracking, or roughness drift can change release and gloss.</text>
    <circle cx="1094" cy="112" r="14" fill="#d4d4d8"/>
    <circle cx="1060" cy="112" r="8" fill="#18181b"/>
  </svg>